<svg xmlns="http://www.w3.org/2000/svg" viewBox="-20 -20 440 440" width="440" height="440">
<style>
  .paper { fill: #f5f0e8; stroke: #333; stroke-width: 1.5; }
  .mountain { stroke: #c0392b; stroke-width: 1.2; stroke-dasharray: 8,2,2,2; fill: none; }
  .valley { stroke: #2980b9; stroke-width: 1.2; stroke-dasharray: 4,3; fill: none; }
  .crease { stroke: #666; stroke-width: 0.8; stroke-dasharray: 2,4; fill: none; }
  .label { font-family: sans-serif; font-size: 10px; fill: #666; }
  .title { font-family: sans-serif; font-size: 14px; font-weight: bold; fill: #333; }
</style>
<rect class="paper" x="0" y="0" width="400.0" height="400.0" rx="1"/>
<line class="mountain" x1="0.0" y1="100.3" x2="299.7" y2="400.0"/>
<line class="mountain" x1="0.0" y1="300.5" x2="300.5" y2="0.0"/>
<line class="mountain" x1="99.5" y1="400.0" x2="400.0" y2="99.5"/>
<line class="mountain" x1="203.5" y1="400.0" x2="400.0" y2="202.2"/>
<line class="valley" x1="0.0" y1="0.0" x2="400.0" y2="400.0"/>
<line class="valley" x1="0.0" y1="197.3" x2="200.3" y2="0.0"/>
<line class="valley" x1="0.0" y1="200.1" x2="199.4" y2="400.0"/>
<line class="valley" x1="0.0" y1="200.2" x2="201.8" y2="0.0"/>
<line class="valley" x1="0.0" y1="200.3" x2="198.2" y2="400.0"/>
<line class="valley" x1="0.0" y1="299.1" x2="299.1" y2="0.0"/>
<line class="valley" x1="0.0" y1="299.7" x2="299.7" y2="0.0"/>
<line class="valley" x1="0.0" y1="300.3" x2="300.3" y2="0.0"/>
<line class="valley" x1="-0.0" y1="400.0" x2="400.0" y2="0.0"/>
<line class="valley" x1="98.5" y1="400.0" x2="400.0" y2="100.9"/>
<line class="valley" x1="98.7" y1="400.0" x2="400.0" y2="101.1"/>
<line class="valley" x1="100.3" y1="0.0" x2="400.0" y2="299.7"/>
<line class="valley" x1="100.3" y1="400.0" x2="400.0" y2="100.3"/>
<line class="valley" x1="198.7" y1="0.0" x2="400.0" y2="201.2"/>
<line class="valley" x1="198.9" y1="400.0" x2="400.0" y2="200.9"/>
<line class="valley" x1="199.8" y1="0.0" x2="400.0" y2="200.3"/>
<text class="title" x="0" y="-5">glynnbox</text>
<text class="label" x="0" y="415">(30 folds, 20 lines: 4M 16V 0C)</text>
</svg>